<mxfile host="app.diagrams.net" agent="Mozilla/5.0 (Windows NT 10.0; Win64; x64) AppleWebKit/537.36 (KHTML, like Gecko) Chrome/120.0.0.0 Safari/537.36 Edg/120.0.0.0" version="24.7.17">
  <diagram name="Страница — 1" id="7d5N1NaUOBCLm_GZ1cdo">
    <mxGraphModel dx="2748" dy="2252" grid="1" gridSize="10" guides="1" tooltips="1" connect="1" arrows="1" fold="1" page="1" pageScale="1" pageWidth="827" pageHeight="1169" math="0" shadow="0">
      <root>
        <mxCell id="0" />
        <mxCell id="1" parent="0" />
        <mxCell id="p3HMjpz_pzWL2e5yNBMK-5" style="edgeStyle=orthogonalEdgeStyle;rounded=0;orthogonalLoop=1;jettySize=auto;html=1;exitX=0.5;exitY=0;exitDx=0;exitDy=0;entryX=0.5;entryY=1;entryDx=0;entryDy=0;endArrow=ERmandOne;endFill=0;" parent="1" source="p3HMjpz_pzWL2e5yNBMK-2" target="p3HMjpz_pzWL2e5yNBMK-4" edge="1">
          <mxGeometry relative="1" as="geometry" />
        </mxCell>
        <mxCell id="p3HMjpz_pzWL2e5yNBMK-72" style="edgeStyle=orthogonalEdgeStyle;rounded=0;orthogonalLoop=1;jettySize=auto;html=1;exitX=0.5;exitY=1;exitDx=0;exitDy=0;entryX=0;entryY=0.25;entryDx=0;entryDy=0;endArrow=ERmany;endFill=0;" parent="1" source="p3HMjpz_pzWL2e5yNBMK-2" target="p3HMjpz_pzWL2e5yNBMK-56" edge="1">
          <mxGeometry relative="1" as="geometry" />
        </mxCell>
        <mxCell id="p3HMjpz_pzWL2e5yNBMK-2" value="Belongs to&amp;nbsp;" style="rhombus;whiteSpace=wrap;html=1;" parent="1" vertex="1">
          <mxGeometry x="-365" y="210" width="140" height="80" as="geometry" />
        </mxCell>
        <mxCell id="p3HMjpz_pzWL2e5yNBMK-4" value="Category" style="rounded=0;whiteSpace=wrap;html=1;" parent="1" vertex="1">
          <mxGeometry x="-355" y="110" width="120" height="60" as="geometry" />
        </mxCell>
        <mxCell id="p3HMjpz_pzWL2e5yNBMK-6" value="Category ID" style="ellipse;whiteSpace=wrap;html=1;fontStyle=4" parent="1" vertex="1">
          <mxGeometry x="-285" y="-100" width="120" height="80" as="geometry" />
        </mxCell>
        <mxCell id="p3HMjpz_pzWL2e5yNBMK-7" value="Category name" style="ellipse;whiteSpace=wrap;html=1;" parent="1" vertex="1">
          <mxGeometry x="-425" y="-100" width="120" height="80" as="geometry" />
        </mxCell>
        <mxCell id="p3HMjpz_pzWL2e5yNBMK-8" value="" style="endArrow=none;html=1;rounded=0;exitX=0;exitY=1;exitDx=0;exitDy=0;entryX=0.5;entryY=0;entryDx=0;entryDy=0;" parent="1" target="p3HMjpz_pzWL2e5yNBMK-4" edge="1">
          <mxGeometry width="50" height="50" relative="1" as="geometry">
            <mxPoint x="-252.42640687119274" y="-21.71572875253787" as="sourcePoint" />
            <mxPoint x="-35" y="370" as="targetPoint" />
          </mxGeometry>
        </mxCell>
        <mxCell id="p3HMjpz_pzWL2e5yNBMK-9" value="" style="endArrow=none;html=1;rounded=0;entryX=0.5;entryY=0;entryDx=0;entryDy=0;exitX=0.5;exitY=1;exitDx=0;exitDy=0;" parent="1" source="p3HMjpz_pzWL2e5yNBMK-7" target="p3HMjpz_pzWL2e5yNBMK-4" edge="1">
          <mxGeometry width="50" height="50" relative="1" as="geometry">
            <mxPoint x="-85" y="420" as="sourcePoint" />
            <mxPoint x="-35" y="370" as="targetPoint" />
          </mxGeometry>
        </mxCell>
        <mxCell id="p3HMjpz_pzWL2e5yNBMK-11" value="Manufacturer" style="rounded=0;whiteSpace=wrap;html=1;" parent="1" vertex="1">
          <mxGeometry x="80" y="660" width="120" height="60" as="geometry" />
        </mxCell>
        <mxCell id="p3HMjpz_pzWL2e5yNBMK-13" style="edgeStyle=orthogonalEdgeStyle;rounded=0;orthogonalLoop=1;jettySize=auto;html=1;exitX=0.5;exitY=1;exitDx=0;exitDy=0;entryX=0.5;entryY=0;entryDx=0;entryDy=0;endArrow=ERoneToMany;endFill=0;" parent="1" source="p3HMjpz_pzWL2e5yNBMK-12" target="p3HMjpz_pzWL2e5yNBMK-11" edge="1">
          <mxGeometry relative="1" as="geometry" />
        </mxCell>
        <mxCell id="p3HMjpz_pzWL2e5yNBMK-87" style="edgeStyle=orthogonalEdgeStyle;rounded=0;orthogonalLoop=1;jettySize=auto;html=1;exitX=0.5;exitY=0;exitDx=0;exitDy=0;entryX=0.5;entryY=1;entryDx=0;entryDy=0;endArrow=ERzeroToMany;endFill=0;" parent="1" source="p3HMjpz_pzWL2e5yNBMK-12" target="p3HMjpz_pzWL2e5yNBMK-56" edge="1">
          <mxGeometry relative="1" as="geometry" />
        </mxCell>
        <mxCell id="p3HMjpz_pzWL2e5yNBMK-12" value="Made by" style="rhombus;whiteSpace=wrap;html=1;" parent="1" vertex="1">
          <mxGeometry x="70" y="520" width="140" height="80" as="geometry" />
        </mxCell>
        <mxCell id="p3HMjpz_pzWL2e5yNBMK-16" value="Manufacturer ID" style="ellipse;whiteSpace=wrap;html=1;fontStyle=4" parent="1" vertex="1">
          <mxGeometry x="-36.25" y="740" width="120" height="80" as="geometry" />
        </mxCell>
        <mxCell id="p3HMjpz_pzWL2e5yNBMK-17" value="Manufacturer Name" style="ellipse;whiteSpace=wrap;html=1;" parent="1" vertex="1">
          <mxGeometry x="80" y="790" width="120" height="80" as="geometry" />
        </mxCell>
        <mxCell id="p3HMjpz_pzWL2e5yNBMK-18" value="Location of facilities" style="ellipse;whiteSpace=wrap;html=1;" parent="1" vertex="1">
          <mxGeometry x="196.25" y="740" width="120" height="80" as="geometry" />
        </mxCell>
        <mxCell id="p3HMjpz_pzWL2e5yNBMK-25" value="Specs ID" style="ellipse;whiteSpace=wrap;html=1;verticalAlign=middle;fontStyle=4" parent="1" vertex="1">
          <mxGeometry x="-490" y="615" width="120" height="80" as="geometry" />
        </mxCell>
        <mxCell id="p3HMjpz_pzWL2e5yNBMK-26" value="Medicine form" style="ellipse;whiteSpace=wrap;html=1;" parent="1" vertex="1">
          <mxGeometry x="-290" y="705" width="120" height="80" as="geometry" />
        </mxCell>
        <mxCell id="p3HMjpz_pzWL2e5yNBMK-27" value="Terms of issue" style="ellipse;whiteSpace=wrap;html=1;" parent="1" vertex="1">
          <mxGeometry x="-425" y="705" width="120" height="80" as="geometry" />
        </mxCell>
        <mxCell id="p3HMjpz_pzWL2e5yNBMK-28" value="Medicine name" style="ellipse;whiteSpace=wrap;html=1;fontStyle=4" parent="1" vertex="1">
          <mxGeometry x="80" y="200" width="120" height="80" as="geometry" />
        </mxCell>
        <mxCell id="p3HMjpz_pzWL2e5yNBMK-97" style="edgeStyle=orthogonalEdgeStyle;rounded=0;orthogonalLoop=1;jettySize=auto;html=1;exitX=0.5;exitY=1;exitDx=0;exitDy=0;entryX=0;entryY=0.5;entryDx=0;entryDy=0;endArrow=ERoneToMany;endFill=0;" parent="1" source="p3HMjpz_pzWL2e5yNBMK-43" target="p3HMjpz_pzWL2e5yNBMK-92" edge="1">
          <mxGeometry relative="1" as="geometry" />
        </mxCell>
        <mxCell id="p3HMjpz_pzWL2e5yNBMK-99" style="edgeStyle=orthogonalEdgeStyle;rounded=0;orthogonalLoop=1;jettySize=auto;html=1;exitX=0.5;exitY=0;exitDx=0;exitDy=0;entryX=1;entryY=0.75;entryDx=0;entryDy=0;endArrow=ERoneToMany;endFill=0;" parent="1" source="p3HMjpz_pzWL2e5yNBMK-43" target="p3HMjpz_pzWL2e5yNBMK-56" edge="1">
          <mxGeometry relative="1" as="geometry" />
        </mxCell>
        <mxCell id="p3HMjpz_pzWL2e5yNBMK-43" value="Contradicts" style="rhombus;whiteSpace=wrap;html=1;" parent="1" vertex="1">
          <mxGeometry x="274" y="430" width="140" height="80" as="geometry" />
        </mxCell>
        <mxCell id="p3HMjpz_pzWL2e5yNBMK-54" value="Lisence name" style="ellipse;whiteSpace=wrap;html=1;" parent="1" vertex="1">
          <mxGeometry x="-220" y="615" width="120" height="80" as="geometry" />
        </mxCell>
        <mxCell id="p3HMjpz_pzWL2e5yNBMK-56" value="Medicine" style="rounded=0;whiteSpace=wrap;html=1;" parent="1" vertex="1">
          <mxGeometry x="67.5" y="310" width="145" height="75" as="geometry" />
        </mxCell>
        <mxCell id="p3HMjpz_pzWL2e5yNBMK-57" value="Specs" style="rounded=0;whiteSpace=wrap;html=1;" parent="1" vertex="1">
          <mxGeometry x="-367.5" y="540" width="145" height="75" as="geometry" />
        </mxCell>
        <mxCell id="p3HMjpz_pzWL2e5yNBMK-79" style="edgeStyle=orthogonalEdgeStyle;rounded=0;orthogonalLoop=1;jettySize=auto;html=1;exitX=0.5;exitY=1;exitDx=0;exitDy=0;endArrow=ERone;endFill=0;" parent="1" source="p3HMjpz_pzWL2e5yNBMK-74" target="p3HMjpz_pzWL2e5yNBMK-57" edge="1">
          <mxGeometry relative="1" as="geometry" />
        </mxCell>
        <mxCell id="p3HMjpz_pzWL2e5yNBMK-74" value="Has" style="rhombus;whiteSpace=wrap;html=1;" parent="1" vertex="1">
          <mxGeometry x="-365" y="400" width="140" height="80" as="geometry" />
        </mxCell>
        <mxCell id="p3HMjpz_pzWL2e5yNBMK-78" value="" style="endArrow=ERone;html=1;rounded=0;entryX=0;entryY=0.75;entryDx=0;entryDy=0;exitX=0.5;exitY=0;exitDx=0;exitDy=0;endFill=0;" parent="1" source="p3HMjpz_pzWL2e5yNBMK-74" target="p3HMjpz_pzWL2e5yNBMK-56" edge="1">
          <mxGeometry width="50" height="50" relative="1" as="geometry">
            <mxPoint x="-280" y="390" as="sourcePoint" />
            <mxPoint x="-110" y="470" as="targetPoint" />
            <Array as="points">
              <mxPoint x="-295" y="370" />
            </Array>
          </mxGeometry>
        </mxCell>
        <mxCell id="p3HMjpz_pzWL2e5yNBMK-80" value="" style="endArrow=none;html=1;rounded=0;entryX=0.5;entryY=1;entryDx=0;entryDy=0;exitX=1;exitY=0.5;exitDx=0;exitDy=0;" parent="1" source="p3HMjpz_pzWL2e5yNBMK-25" target="p3HMjpz_pzWL2e5yNBMK-57" edge="1">
          <mxGeometry width="50" height="50" relative="1" as="geometry">
            <mxPoint x="-270" y="420" as="sourcePoint" />
            <mxPoint x="-220" y="370" as="targetPoint" />
          </mxGeometry>
        </mxCell>
        <mxCell id="p3HMjpz_pzWL2e5yNBMK-82" value="" style="endArrow=none;html=1;rounded=0;entryX=0;entryY=0;entryDx=0;entryDy=0;exitX=0.5;exitY=1;exitDx=0;exitDy=0;" parent="1" source="p3HMjpz_pzWL2e5yNBMK-57" target="p3HMjpz_pzWL2e5yNBMK-26" edge="1">
          <mxGeometry width="50" height="50" relative="1" as="geometry">
            <mxPoint x="-290" y="620" as="sourcePoint" />
            <mxPoint x="-220" y="370" as="targetPoint" />
          </mxGeometry>
        </mxCell>
        <mxCell id="p3HMjpz_pzWL2e5yNBMK-83" value="" style="endArrow=none;html=1;rounded=0;entryX=0;entryY=0.5;entryDx=0;entryDy=0;exitX=0.5;exitY=1;exitDx=0;exitDy=0;" parent="1" source="p3HMjpz_pzWL2e5yNBMK-57" target="p3HMjpz_pzWL2e5yNBMK-54" edge="1">
          <mxGeometry width="50" height="50" relative="1" as="geometry">
            <mxPoint x="-270" y="420" as="sourcePoint" />
            <mxPoint x="-220" y="370" as="targetPoint" />
          </mxGeometry>
        </mxCell>
        <mxCell id="p3HMjpz_pzWL2e5yNBMK-85" value="" style="endArrow=none;html=1;rounded=0;entryX=1;entryY=0;entryDx=0;entryDy=0;exitX=0.5;exitY=1;exitDx=0;exitDy=0;" parent="1" source="p3HMjpz_pzWL2e5yNBMK-57" target="p3HMjpz_pzWL2e5yNBMK-27" edge="1">
          <mxGeometry width="50" height="50" relative="1" as="geometry">
            <mxPoint x="-270" y="420" as="sourcePoint" />
            <mxPoint x="-220" y="370" as="targetPoint" />
          </mxGeometry>
        </mxCell>
        <mxCell id="p3HMjpz_pzWL2e5yNBMK-86" value="" style="endArrow=none;html=1;rounded=0;exitX=0.5;exitY=0;exitDx=0;exitDy=0;entryX=0.5;entryY=1;entryDx=0;entryDy=0;" parent="1" source="p3HMjpz_pzWL2e5yNBMK-56" target="p3HMjpz_pzWL2e5yNBMK-28" edge="1">
          <mxGeometry width="50" height="50" relative="1" as="geometry">
            <mxPoint x="-270" y="420" as="sourcePoint" />
            <mxPoint x="150" y="110" as="targetPoint" />
          </mxGeometry>
        </mxCell>
        <mxCell id="p3HMjpz_pzWL2e5yNBMK-88" value="" style="endArrow=none;html=1;rounded=0;exitX=0.5;exitY=0;exitDx=0;exitDy=0;" parent="1" source="p3HMjpz_pzWL2e5yNBMK-17" edge="1">
          <mxGeometry width="50" height="50" relative="1" as="geometry">
            <mxPoint x="-60" y="830" as="sourcePoint" />
            <mxPoint x="140" y="720" as="targetPoint" />
          </mxGeometry>
        </mxCell>
        <mxCell id="p3HMjpz_pzWL2e5yNBMK-89" value="" style="endArrow=none;html=1;rounded=0;entryX=0.5;entryY=1;entryDx=0;entryDy=0;exitX=0;exitY=0;exitDx=0;exitDy=0;" parent="1" source="p3HMjpz_pzWL2e5yNBMK-18" target="p3HMjpz_pzWL2e5yNBMK-11" edge="1">
          <mxGeometry width="50" height="50" relative="1" as="geometry">
            <mxPoint x="-60" y="830" as="sourcePoint" />
            <mxPoint x="-10" y="780" as="targetPoint" />
          </mxGeometry>
        </mxCell>
        <mxCell id="p3HMjpz_pzWL2e5yNBMK-90" value="" style="endArrow=none;html=1;rounded=0;entryX=0.5;entryY=1;entryDx=0;entryDy=0;exitX=1;exitY=0;exitDx=0;exitDy=0;" parent="1" source="p3HMjpz_pzWL2e5yNBMK-16" target="p3HMjpz_pzWL2e5yNBMK-11" edge="1">
          <mxGeometry width="50" height="50" relative="1" as="geometry">
            <mxPoint x="-60" y="830" as="sourcePoint" />
            <mxPoint x="-10" y="780" as="targetPoint" />
          </mxGeometry>
        </mxCell>
        <mxCell id="p3HMjpz_pzWL2e5yNBMK-98" style="edgeStyle=orthogonalEdgeStyle;rounded=0;orthogonalLoop=1;jettySize=auto;html=1;exitX=0.5;exitY=1;exitDx=0;exitDy=0;entryX=1;entryY=0.5;entryDx=0;entryDy=0;endArrow=ERoneToMany;endFill=0;" parent="1" source="p3HMjpz_pzWL2e5yNBMK-91" target="p3HMjpz_pzWL2e5yNBMK-92" edge="1">
          <mxGeometry relative="1" as="geometry" />
        </mxCell>
        <mxCell id="p3HMjpz_pzWL2e5yNBMK-100" style="edgeStyle=orthogonalEdgeStyle;rounded=0;orthogonalLoop=1;jettySize=auto;html=1;exitX=0.5;exitY=0;exitDx=0;exitDy=0;entryX=1;entryY=0.25;entryDx=0;entryDy=0;endArrow=ERoneToMany;endFill=0;" parent="1" source="p3HMjpz_pzWL2e5yNBMK-91" target="p3HMjpz_pzWL2e5yNBMK-56" edge="1">
          <mxGeometry relative="1" as="geometry" />
        </mxCell>
        <mxCell id="p3HMjpz_pzWL2e5yNBMK-91" value="Treats" style="rhombus;whiteSpace=wrap;html=1;" parent="1" vertex="1">
          <mxGeometry x="580" y="430" width="140" height="80" as="geometry" />
        </mxCell>
        <mxCell id="p3HMjpz_pzWL2e5yNBMK-92" value="Desease" style="rounded=0;whiteSpace=wrap;html=1;" parent="1" vertex="1">
          <mxGeometry x="430" y="580" width="120" height="60" as="geometry" />
        </mxCell>
        <mxCell id="p3HMjpz_pzWL2e5yNBMK-101" value="Desease ID" style="ellipse;whiteSpace=wrap;html=1;fontStyle=4" parent="1" vertex="1">
          <mxGeometry x="500" y="690" width="120" height="80" as="geometry" />
        </mxCell>
        <mxCell id="p3HMjpz_pzWL2e5yNBMK-102" value="Desease name" style="ellipse;whiteSpace=wrap;html=1;" parent="1" vertex="1">
          <mxGeometry x="370" y="690" width="120" height="80" as="geometry" />
        </mxCell>
        <mxCell id="p3HMjpz_pzWL2e5yNBMK-103" value="" style="endArrow=none;html=1;rounded=0;entryX=0.5;entryY=1;entryDx=0;entryDy=0;exitX=0.5;exitY=0;exitDx=0;exitDy=0;" parent="1" source="p3HMjpz_pzWL2e5yNBMK-102" target="p3HMjpz_pzWL2e5yNBMK-92" edge="1">
          <mxGeometry width="50" height="50" relative="1" as="geometry">
            <mxPoint x="260" y="590" as="sourcePoint" />
            <mxPoint x="310" y="540" as="targetPoint" />
          </mxGeometry>
        </mxCell>
        <mxCell id="p3HMjpz_pzWL2e5yNBMK-104" value="" style="endArrow=none;html=1;rounded=0;entryX=0.5;entryY=1;entryDx=0;entryDy=0;exitX=0.5;exitY=0;exitDx=0;exitDy=0;" parent="1" source="p3HMjpz_pzWL2e5yNBMK-101" target="p3HMjpz_pzWL2e5yNBMK-92" edge="1">
          <mxGeometry width="50" height="50" relative="1" as="geometry">
            <mxPoint x="260" y="590" as="sourcePoint" />
            <mxPoint x="310" y="540" as="targetPoint" />
          </mxGeometry>
        </mxCell>
        <mxCell id="H6gBKcuF7sAL15jQxejd-3" value="Тут 2 окремі звязки з однією сутністю повзязані з прикладними властивостями мед перпаратів в яких є хвороби при яких препарат протипоказаний а також хвороби при яких цей припарат виписуеться&lt;div&gt;Якщо такі звязки будуть заважати То можна лишити лише протипокази&amp;nbsp;&lt;/div&gt;" style="text;html=1;align=center;verticalAlign=middle;whiteSpace=wrap;rounded=0;" parent="1" vertex="1">
          <mxGeometry x="415" y="430" width="150" height="70" as="geometry" />
        </mxCell>
      </root>
    </mxGraphModel>
  </diagram>
</mxfile>
